HIERARCHY
ROOT Hips
{
 OFFSET 0.000000 0.000000 0.000000
 CHANNELS 6 Xposition Yposition Zposition Yrotation Xrotation Zrotation
 JOINT Chest
 {
  OFFSET 0.000000 9.857222 0.000240
  CHANNELS 3 Yrotation Xrotation Zrotation
  JOINT Chest2
  {
   OFFSET 0.000000 10.876940 -0.000436
   CHANNELS 3 Yrotation Xrotation Zrotation
   JOINT Chest3
   {
    OFFSET 0.000000 9.827798 0.000000
    CHANNELS 3 Yrotation Xrotation Zrotation
    JOINT Chest4
    {
     OFFSET 0.000000 9.827798 0.000000
     CHANNELS 3 Yrotation Xrotation Zrotation
     JOINT Neck
     {
      OFFSET 0.000000 13.831992 0.000000
      CHANNELS 3 Yrotation Xrotation Zrotation
      JOINT Head
      {
       OFFSET 0.000000 9.147643 -0.001036
       CHANNELS 3 Yrotation Xrotation Zrotation
       End Site
       {
        OFFSET 0.000000 17.515799 -0.000541
       }
      }
     }
     JOINT RightCollar
     {
      OFFSET -3.001579 7.717577 0.000000
      CHANNELS 3 Yrotation Xrotation Zrotation
      JOINT RightShoulder
      {
       OFFSET -14.002642 0.000000 0.000000
       CHANNELS 3 Yrotation Xrotation Zrotation
       JOINT RightElbow
       {
        OFFSET -30.053852 0.000000 0.000000
        CHANNELS 3 Yrotation Xrotation Zrotation
        JOINT RightWrist
        {
         OFFSET -24.564923 0.000000 -0.000000
         CHANNELS 3 Yrotation Xrotation Zrotation
         End Site
         {
          OFFSET -18.334355 0.000000 0.000000
         }
        }
       }
      }
     }
     JOINT LeftCollar
     {
      OFFSET 3.001579 7.717577 0.000000
      CHANNELS 3 Yrotation Xrotation Zrotation
      JOINT LeftShoulder
      {
       OFFSET 14.002642 0.000000 0.000000
       CHANNELS 3 Yrotation Xrotation Zrotation
       JOINT LeftElbow
       {
        OFFSET 30.053852 0.000000 0.000000
        CHANNELS 3 Yrotation Xrotation Zrotation
        JOINT LeftWrist
        {
         OFFSET 24.564923 0.000000 -0.000000
         CHANNELS 3 Yrotation Xrotation Zrotation
         End Site
         {
          OFFSET 18.334355 0.000000 0.000000
         }
        }
       }
      }
     }
    }
   }
  }
 }
 JOINT RightHip
 {
  OFFSET -8.003235 -0.001175 -0.000120
  CHANNELS 3 Yrotation Xrotation Zrotation
  JOINT RightKnee
  {
   OFFSET 0.000000 -41.759727 0.000113
   CHANNELS 3 Yrotation Xrotation Zrotation
   JOINT RightAnkle
   {
    OFFSET 0.000000 -40.728748 0.000159
    CHANNELS 3 Yrotation Xrotation Zrotation
    JOINT RightToe
    {
     OFFSET 0.000000 -6.515296 14.732841
     CHANNELS 3 Yrotation Xrotation Zrotation
     End Site
     {
      OFFSET 0.000000 -1.502839 6.412115
     }
    }
   }
  }
 }
 JOINT LeftHip
 {
  OFFSET 8.003235 -0.001175 -0.000120
  CHANNELS 3 Yrotation Xrotation Zrotation
  JOINT LeftKnee
  {
   OFFSET 0.000000 -41.759727 0.000113
   CHANNELS 3 Yrotation Xrotation Zrotation
   JOINT LeftAnkle
   {
    OFFSET 0.000000 -40.728748 0.000159
    CHANNELS 3 Yrotation Xrotation Zrotation
    JOINT LeftToe
    {
     OFFSET 0.000000 -6.515296 14.732841
     CHANNELS 3 Yrotation Xrotation Zrotation
     End Site
     {
      OFFSET 0.000000 -1.502839 6.412115
     }
    }
   }
  }
 }
}
MOTION
Frames: 8
Frame Time: 0.016667
-3.573195 90.490022 9.079539 -32.242275 -11.670134 0.604535 3.405403 -6.701118 -1.469985 1.399073 -3.068380 -0.510146 1.399073 -3.068380 -0.510146 1.046491 -2.302469 -0.375490 5.636761 39.405279 3.609180 9.893837 36.880514 6.174704 13.726409 42.013169 10.548371 89.803083 -0.723304 0.053059 22.173284 7.844995 -18.041445 7.745245 2.279442 -22.755986 -24.786382 41.631520 -13.340968 -59.085793 25.931587 6.351520 -36.781141 -13.524411 21.054225 11.024238 7.493958 17.835024 -11.050736 8.467277 -4.551842 2.700268 8.349124 -1.621690 -0.554524 -4.706644 3.304775 0.101665 -0.095207 0.006261 -27.643421 17.850448 -3.121814 32.895909 3.718289 -5.823588 5.736757 -7.468373 -1.299720 -0.427105 0.110811 -0.180865
-3.576969 90.478465 9.074055 -32.205044 -11.610743 0.570522 3.435735 -6.775470 -1.498610 1.418036 -3.095960 -0.525767 1.418036 -3.095960 -0.525767 1.060603 -2.323207 -0.387042 5.630751 39.241687 3.575657 9.870608 36.579131 6.097523 13.780907 43.346905 9.940616 92.224705 2.942033 -0.260903 15.131428 7.130336 -18.209936 7.911236 2.337932 -23.120775 -25.517698 42.669079 -13.183668 -60.255888 30.022111 8.101785 -31.534973 -18.669932 20.441506 10.675482 7.528552 17.500484 -10.858503 8.428903 -4.481941 2.587571 8.362307 -1.605024 -0.565643 -4.737315 3.296806 0.099701 -0.073085 0.013145 -27.528593 17.847925 -3.051250 32.822350 3.632330 -5.804434 5.723903 -7.425013 -1.319391 -0.408740 0.120654 -0.174908
-3.585978 90.465498 9.078975 -32.177551 -11.512904 0.531316 3.566143 -6.886684 -1.608896 1.475883 -3.144871 -0.574538 1.475883 -3.144871 -0.574538 1.103676 -2.360059 -0.423196 5.596165 39.095646 3.659115 9.791625 36.304669 6.232294 13.692667 44.661020 9.438323 93.457604 7.270442 -0.805299 9.808147 4.904560 -17.862063 8.100610 2.222892 -23.675197 -26.005746 43.813028 -12.595375 -59.623879 34.008808 11.452299 -29.072393 -26.042339 19.184254 10.803097 8.543175 16.465853 -10.693454 8.353165 -4.397470 2.517105 8.385336 -1.604070 -0.584924 -4.778963 3.293780 0.098847 -0.053647 0.022861 -27.520836 17.825138 -2.991731 32.821032 3.537493 -5.803381 5.689903 -7.396187 -1.324083 -0.395435 0.133311 -0.170942
-3.601736 90.449479 9.091308 -32.177290 -11.341574 0.467638 3.717477 -7.112936 -1.735728 1.537212 -3.251624 -0.629270 1.537212 -3.251624 -0.629270 1.149249 -2.440321 -0.463643 5.550635 39.038183 3.776275 9.698700 36.192975 6.437222 13.614797 46.170712 9.110122 94.568744 10.817469 -1.504496 5.660470 2.750326 -17.406235 8.097903 1.755872 -24.373968 -26.601090 44.580672 -12.224944 -58.379675 35.360335 14.831907 -27.012712 -30.737526 15.485477 11.735521 9.599918 15.718538 -10.568797 8.212437 -4.275974 2.494245 8.400975 -1.613037 -0.593244 -4.821568 3.291757 0.097427 -0.034692 0.031577 -27.595965 17.748020 -2.898506 32.845354 3.463330 -5.820490 5.721022 -7.408955 -1.327147 -0.380169 0.158227 -0.164956
-3.628842 90.433965 9.108491 -32.215840 -11.196964 0.392383 3.726479 -7.490303 -1.763824 1.533444 -3.426418 -0.645331 1.533444 -3.426418 -0.645331 1.146120 -2.571454 -0.475251 5.531548 39.138888 3.779041 9.673319 36.379655 6.453849 14.102855 47.788325 9.167189 95.537762 12.992061 -1.988932 3.429990 0.603540 -17.631819 7.890563 1.218050 -24.810883 -27.009520 45.741354 -12.486874 -57.936272 35.761146 17.090736 -24.486439 -31.963608 11.274869 12.474032 8.941146 16.018756 -10.492597 8.099540 -4.158498 2.480679 8.411278 -1.609539 -0.557131 -4.860421 3.274899 0.095241 -0.020602 0.037490 -27.637597 17.719751 -2.777870 32.790159 3.402909 -5.888288 5.839210 -7.437944 -1.323126 -0.357914 0.174999 -0.153082
-3.661730 90.424165 9.123172 -32.288017 -11.110435 0.332294 3.684188 -8.012206 -1.768036 1.516925 -3.651622 -0.653409 1.516925 -3.651622 -0.653409 1.133401 -2.740361 -0.480820 5.538464 39.371504 3.770040 9.706858 36.811021 6.462428 14.871270 49.432372 9.702017 95.797859 11.841535 -3.403575 3.621411 1.458827 -17.058600 7.855140 1.046613 -25.153152 -27.302389 47.420453 -13.263546 -59.533213 33.251892 16.656719 -22.244116 -28.517379 9.379038 11.231772 7.944651 16.186772 -10.513530 8.043318 -4.092689 2.499253 8.392422 -1.577962 -0.470328 -4.874008 3.240860 0.088879 -0.014194 0.036253 -27.814869 17.723741 -2.718603 32.856053 3.375079 -5.978378 6.021857 -7.450131 -1.326981 -0.327252 0.158774 -0.135032
-3.692821 90.415533 9.136434 -32.351524 -11.104030 0.292815 3.715971 -8.795797 -1.785615 1.543098 -3.980509 -0.665387 1.543098 -3.980509 -0.665387 1.152519 -2.987088 -0.488778 5.537856 39.831203 3.871021 9.743434 37.657953 6.693248 15.396698 51.431515 10.528934 96.564481 5.741046 -5.208817 4.364115 8.716291 -15.481174 7.958993 0.924676 -25.281570 -27.868023 49.389166 -14.461704 -63.055744 27.534334 14.263333 -22.518585 -21.265670 9.934420 10.847539 8.581973 15.996439 -10.665931 8.055361 -4.079341 2.603196 8.368986 -1.550957 -0.393289 -4.885250 3.215499 0.077524 -0.006157 0.029612 -28.097987 17.774107 -2.740921 33.049505 3.373983 -6.060329 6.147502 -7.460807 -1.341456 -0.278837 0.130005 -0.109444
-3.725908 90.404600 9.156958 -32.455805 -11.315191 0.297582 3.803936 -9.411190 -1.773203 1.588131 -4.246800 -0.663549 1.588131 -4.246800 -0.663549 1.185935 -3.186853 -0.486384 5.511938 40.269378 3.966656 9.736014 38.465607 6.915096 15.611679 52.927747 11.206709 97.926605 -1.357254 -6.535800 4.856697 18.106061 -13.434631 7.819717 0.982256 -25.243236 -28.205861 50.706885 -15.309797 -66.444108 21.855628 11.543870 -22.039501 -11.615834 9.857786 9.928386 8.391136 15.775629 -10.887724 8.273013 -4.153431 2.783087 8.341749 -1.537315 -0.324988 -4.918656 3.200640 0.067086 0.023074 0.022081 -28.364568 17.998704 -2.891565 33.271591 3.398523 -6.140902 6.165862 -7.486254 -1.334208 -0.267495 0.100083 -0.103763
